<?xml version="1.0" standalone="no"?>
<!DOCTYPE svg PUBLIC "-//W3C//DTD SVG 20010904//EN"
 "http://www.w3.org/TR/2001/REC-SVG-20010904/DTD/svg10.dtd">
<svg version="1.0" xmlns="http://www.w3.org/2000/svg"
 width="512.000000pt" height="512.000000pt" viewBox="0 0 512.000000 512.000000"
 preserveAspectRatio="xMidYMid meet">
<metadata>
Created by potrace 1.14, written by Peter Selinger 2001-2017
</metadata>
<g transform="translate(0.000000,512.000000) scale(0.100000,-0.100000)"
fill="#000000" stroke="none">
<path d="M2560 4640 l0 -160 -320 0 -320 0 0 -160 0 -160 -320 0 -320 0 0
-160 0 -160 -320 0 -320 0 0 -160 0 -160 -160 0 -160 0 0 -160 0 -160 160 0
160 0 0 -160 0 -160 160 0 160 0 0 -320 0 -320 160 0 160 0 0 -320 0 -320 160
0 160 0 0 -160 0 -160 80 0 80 0 0 -160 0 -160 -400 0 -400 0 0 -80 0 -80 -80
0 -80 0 0 -80 0 -80 -80 0 -80 0 0 -320 0 -320 80 0 80 0 0 320 0 320 80 0 80
0 0 -320 0 -320 320 0 320 0 0 80 0 80 80 0 80 0 0 80 0 80 80 0 80 0 0 80 0
80 80 0 80 0 0 -80 0 -80 480 0 480 0 0 80 0 80 80 0 80 0 0 -80 0 -80 80 0
80 0 0 -80 0 -80 80 0 80 0 0 -80 0 -80 80 0 80 0 0 80 0 80 80 0 80 0 0 -80
0 -80 320 0 320 0 0 320 0 320 -80 0 -80 0 0 80 0 80 -80 0 -80 0 0 80 0 80
-400 0 -400 0 0 160 0 160 80 0 80 0 0 640 0 640 480 0 480 0 0 160 0 160 160
0 160 0 0 320 0 320 -640 0 -640 0 0 160 0 160 320 0 320 0 0 160 0 160 -640
0 -640 0 0 160 0 160 160 0 160 0 0 160 0 160 -320 0 -320 0 0 -160z m0 -640
l0 -160 -320 0 -320 0 0 -160 0 -160 -320 0 -320 0 0 -160 0 -160 -320 0 -320
0 0 160 0 160 320 0 320 0 0 160 0 160 320 0 320 0 0 160 0 160 320 0 320 0 0
-160z m800 -1920 l0 -800 -80 0 -80 0 0 -240 0 -240 -80 0 -80 0 0 -80 0 -80
-480 0 -480 0 0 80 0 80 -80 0 -80 0 0 560 0 560 -80 0 -80 0 0 320 0 320 80
0 80 0 0 160 0 160 720 0 720 0 0 -800z m-2240 -1360 l0 -80 -80 0 -80 0 0 80
0 80 80 0 80 0 0 -80z"/>
<path d="M2240 2640 l0 -80 80 0 80 0 0 -240 0 -240 80 0 80 0 0 320 0 320
-160 0 -160 0 0 -80z"/>
<path d="M2880 2640 l0 -80 80 0 80 0 0 -240 0 -240 80 0 80 0 0 320 0 320
-160 0 -160 0 0 -80z"/>
<path d="M2080 1840 l0 -80 80 0 80 0 0 -80 0 -80 400 0 400 0 0 80 0 80 -400
0 -400 0 0 80 0 80 -80 0 -80 0 0 -80z"/>
</g>
</svg>
